<svg width="1200" height="433" viewBox="0 0 1200 433" fill="none" xmlns="http://www.w3.org/2000/svg">
<path fill-rule="evenodd" clip-rule="evenodd" d="M552.774 56.09L549.929 60.967H547.2L546.33 62.401H549.087L543.018 72.784C541.741 74.992 542.642 77.03 545.08 77.03C546.303 77.03 547.618 76.393 548.933 75.409L548.155 76.743H551.201L555.789 68.856C560.433 63.089 562.495 63.836 561.188 66.046L557.268 72.786C555.99 74.996 556.891 77.034 559.329 77.034C561.125 77.034 563.117 75.664 565.022 73.829C565.168 75.686 566.689 77.034 569.112 77.034C572.535 77.034 575.932 74.394 578.428 71.526C578.231 71.123 577.709 70.665 577.302 70.493L577.099 70.719C574.921 73.216 572.135 75.194 570.017 75.194C568.157 75.194 567.053 74.048 568.447 71.639L568.737 71.119C570.683 71.924 574.341 71.55 576.605 67.679L577.042 66.932C578.667 64.179 577.1 62.114 574.632 62.114C572.193 62.114 570.249 63.377 568.972 65.555L566.042 70.52L565.866 70.72C563.689 73.214 561.571 75.192 560.235 75.192C559.569 75.192 559.189 74.732 559.885 73.557L564.24 66.014C565.546 63.749 564.3 62.114 562.616 62.114C561.309 62.114 559.914 62.831 558.406 64.379L563.224 56.09H560.205L551.782 70.528L551.612 70.718C549.436 73.214 547.315 75.192 545.979 75.192C545.312 75.192 544.935 74.732 545.633 73.557L552.105 62.399H554.572L555.444 60.966H552.948L555.793 56.091L552.774 56.09ZM520.465 60.969L523.31 56.094H526.329L523.483 60.967H525.982L525.11 62.403H522.645L516.169 73.561C515.472 74.736 515.85 75.196 516.517 75.196C517.852 75.196 519.974 73.217 522.15 70.721L522.306 70.545L523.543 68.455L525.023 65.902C526.765 62.918 528.563 62.002 530.885 62.002C533.731 62.002 535.414 64.955 533.586 68.082L530.741 72.928C532.252 72.899 533.935 72.184 535.299 70.721L535.504 70.493C535.91 70.665 536.432 71.122 536.632 71.526C535.092 73.332 532.248 74.422 530.448 74.422H529.782C526.513 78.506 521.166 77.763 521.172 73.961C519.306 75.73 517.369 77.034 515.615 77.034C513.177 77.034 512.276 74.996 513.554 72.787L519.622 62.404H516.865L517.735 60.969H520.465ZM531.263 66.967C532.291 65.225 531.825 64.02 530.841 63.93C530.076 63.86 528.998 64.466 528.071 66.022L526.62 68.459L524.326 72.387C522.526 75.484 525.983 75.943 527.405 73.533L527.435 73.477C527.26 73.189 527.144 72.844 527.144 72.473C527.144 71.498 527.927 70.694 528.914 70.694H529.059L531.263 66.967ZM574.575 66.936C575.587 65.192 575.055 64.275 574.086 64.332V64.333C573.334 64.377 572.317 65.011 571.554 66.303L569.608 69.66C570.741 70.062 572.688 70.12 574.138 67.682L574.575 66.936ZM618.404 58.869C616.69 60.389 616.546 62.083 617.621 63.459L617.883 63.803L617.821 63.8899C616.492 65.7458 614.718 68.2255 612.773 70.487L612.775 70.49L612.572 70.719C611.207 72.18 609.526 72.899 608.014 72.928L610.857 68.08C612.687 64.954 611.004 62 608.157 62C605.837 62 604.037 62.918 602.297 65.9L600.813 68.453L599.575 70.545L599.421 70.721C596.924 73.561 594.778 75.392 592.396 76.397L599.159 64.983H597.389C597.389 63.749 596.113 62.113 594.225 62.113C592.601 62.113 590.335 63.378 589.057 65.557L584.819 72.784C583.541 74.992 584.441 77.03 586.879 77.03C587.722 77.03 588.739 76.656 589.756 76.026L588.913 77.43C584.849 78.663 582.293 80.298 582.293 82.536C582.293 85.405 586.735 86.007 588.913 82.336L591.205 78.406C593.621 77.663 595.988 76.259 598.445 73.942C598.424 77.759 603.782 78.509 607.055 74.418H607.723C609.523 74.418 612.368 73.329 613.907 71.522C615.356 69.858 616.487 68.367 618.897 65.127L619.302 65.616C619.679 66.103 619.827 66.706 619.477 67.307L616.284 72.786C615.004 74.996 615.905 77.032 618.345 77.032C619.875 77.032 621.549 76.037 623.187 74.61C623.137 75.996 624.074 77.032 625.806 77.032C626.646 77.032 627.663 76.659 628.68 76.028L627.838 77.43C623.773 78.663 621.222 80.298 621.222 82.536C621.222 85.405 625.662 86.006 627.838 82.336L630.13 78.406C632.59 77.648 635 76.2 637.507 73.807C637.643 75.675 639.165 77.032 641.597 77.032C644.055 77.032 646.496 75.669 648.601 73.842C648.484 77.747 653.911 78.545 657.213 74.42H657.881C658.826 74.42 660.056 74.112 661.238 73.567C660.425 75.64 661.172 77.032 662.899 77.032C664.555 77.032 666.412 75.54 667.863 74.164C667.573 75.769 668.53 77.032 670.447 77.032C672.943 77.032 675.817 74.395 678.315 71.526L678.313 71.524C679.668 69.9796 680.896 68.3481 681.883 67.0383L681.883 67.0381C682.143 66.6925 682.387 66.3693 682.611 66.076C682.211 67.1162 682.017 68.435 681.827 69.7278C681.452 72.2827 681.091 74.736 679.185 74.736C678.169 74.736 677.765 73.646 677.765 73.646L675.875 74.621C675.875 74.621 676.426 77.033 679.185 77.033C679.453 77.033 679.697 77.0074 679.959 76.9799L680.025 76.973C680.04 76.973 680.055 76.9662 680.071 76.9595C680.086 76.9527 680.101 76.946 680.116 76.946C683.192 76.546 686.24 74.136 688.504 71.526C688.331 71.067 687.808 70.608 687.374 70.492L687.171 70.721C686.106 71.9533 684.886 73.0423 683.541 73.961C683.916 72.8472 684.113 71.4997 684.326 70.043C684.657 67.7852 685.025 65.2653 686.155 62.947L683.891 61.742C683.66 62.0549 683.379 62.4432 683.056 62.8882C681.633 64.8511 679.41 67.9181 677.185 70.49V70.492L676.982 70.721C674.806 73.217 672.687 75.193 671.351 75.193C670.684 75.193 670.306 74.734 671.004 73.559L677.448 62.401H674.428L669.058 71.666C666.765 73.73 664.996 74.878 664.414 74.619C663.714 74.3277 664.313 73.3433 664.705 72.6988C664.736 72.6486 664.765 72.6005 664.792 72.555L670.685 62.403H667.665L662.931 70.495L662.732 70.721C661.368 72.184 659.685 72.901 658.174 72.931L661.019 68.082C662.847 64.955 661.169 62.002 658.32 62.002C655.997 62.002 654.197 62.92 652.456 65.905L650.974 68.455L649.737 70.545L649.582 70.723C647.406 73.219 644.618 75.196 642.499 75.196C640.641 75.196 639.539 74.05 640.932 71.641L641.222 71.123C643.166 71.927 646.826 71.553 649.089 67.68L649.527 66.934C651.15 64.18 649.585 62.115 647.117 62.115C644.677 62.115 642.73 63.38 641.454 65.559L638.528 70.524L638.353 70.721C635.854 73.561 633.708 75.394 631.325 76.399L638.089 64.983H636.317C636.317 63.749 635.04 62.115 633.153 62.115C631.528 62.115 629.264 63.378 627.986 65.557L625.09 70.494L625.082 70.49L624.879 70.72C622.703 73.215 620.581 75.194 619.245 75.194C618.578 75.194 618.203 74.734 618.899 73.559L621.917 68.339C622.962 66.532 622.468 65.469 621.48 64.293L619.797 62.283C619.362 61.738 619.362 61.137 619.972 60.563L618.404 58.869ZM608.534 66.967C609.561 65.225 609.094 64.019 608.11 63.929V63.93C607.346 63.86 606.27 64.466 605.342 66.022L603.889 68.459L601.597 72.387C599.797 75.484 603.253 75.943 604.675 73.533L604.703 73.477C604.529 73.189 604.413 72.844 604.413 72.473C604.413 71.498 605.197 70.694 606.183 70.694H606.33L608.534 66.967ZM658.268 63.929C659.252 64.019 659.721 65.225 658.694 66.967L656.488 70.694H656.341C655.355 70.694 654.573 71.498 654.573 72.473C654.573 72.844 654.689 73.189 654.862 73.477L654.832 73.533C653.411 75.943 649.957 75.484 651.757 72.387L654.049 68.459L655.5 66.022C656.427 64.466 657.503 63.86 658.268 63.93V63.929ZM647.053 66.936C648.065 65.193 647.536 64.277 646.568 64.334V64.335C645.816 64.379 644.798 65.013 644.036 66.305L642.088 69.66C643.221 70.062 645.167 70.12 646.618 67.682L647.053 66.936ZM594.165 64.535C595.188 64.529 595.843 65.419 595.01 66.935L592.718 70.895C590.888 73.792 589.058 75.195 587.78 75.195C587.113 75.195 586.735 74.736 587.431 73.561L591.643 66.305C592.353 65.088 593.37 64.54 594.165 64.535ZM633.933 66.935C634.766 65.419 634.111 64.529 633.088 64.535C632.293 64.54 631.276 65.088 630.566 66.305L626.356 73.561C625.662 74.736 626.038 75.195 626.705 75.195C627.981 75.195 629.813 73.792 631.641 70.895L633.933 66.935ZM587.75 79.443L587.749 79.4443C585.459 80.3322 584.732 81.2201 584.732 81.994C584.732 82.797 585.748 82.968 586.386 81.85L587.749 79.4443L587.75 79.444V79.443ZM626.674 79.4443L626.675 79.443V79.444L626.674 79.4443ZM626.674 79.4443L625.313 81.85C624.673 82.968 623.657 82.797 623.657 81.994C623.657 81.2201 624.383 80.3322 626.674 79.4443ZM472.025 67.831H500.947V69.781H472.025V67.831ZM727.977 67.831H699.055V69.781H727.977V67.831Z" fill="#766458"/>
<path fill-rule="evenodd" clip-rule="evenodd" d="M565.824 37.364V45.1H545.008V0.352997H565.824V8.023H552.624V18.827H563.159V26.497H552.624V37.363L565.824 37.364ZM587.17 45.1V37.364L576.573 37.363V0.352997H568.957V45.1H587.17ZM693.7 45.1V37.364H680.499V26.497H691.034V18.827H680.499V8.024H693.7V0.352997H672.884V45.1H693.7ZM668.459 0.353997H660.908L654.115 21.959L647.324 0.353997H639.772V45.101H647.389V23.111L650.371 34.489H657.796L660.843 23.111V45.101H668.459V0.353997ZM628.999 8.024H623.476V37.364H629L628.999 8.024ZM636.679 5.085C636.679 2.463 634.521 0.353997 631.981 0.353997L620.557 0.354997C617.957 0.354997 615.861 2.464 615.861 5.085V40.37C615.861 42.927 617.957 45.1 620.557 45.1H631.981C634.521 45.1 636.679 42.927 636.679 40.37V5.085ZM603.971 28.606L611.649 26.816V40.368C611.649 42.925 609.492 45.098 606.953 45.098H595.528C592.928 45.098 590.833 42.925 590.833 40.368V5.084C590.833 2.462 592.928 0.353997 595.528 0.353997H606.951C609.491 0.353997 611.648 2.462 611.648 5.084V14.161L603.97 15.951V8.023H598.448V37.363H603.97L603.971 28.606ZM541.241 0.353997H533.564L532.994 37.364H532.232L527.344 0.353997H519.792L515.032 37.364H514.208L513.573 0.353997H505.957L507.099 45.1H521.632L523.599 26.626L525.567 45.1H540.037L541.241 0.353997Z" fill="#81B3D3"/>
<path fill-rule="evenodd" clip-rule="evenodd" d="M380.673 190.115C380.75 190.193 380.789 190.27 380.789 190.348C380.867 190.348 380.944 190.386 381.021 190.464C383.111 192.786 385.473 194.954 388.105 196.967C390.737 198.902 393.757 199.947 397.163 200.102C397.241 200.102 397.318 200.142 397.395 200.219H397.744C397.821 200.219 397.899 200.257 397.976 200.335H399.253C399.641 200.257 399.989 200.18 400.299 200.102C401.54 199.869 402.724 199.396 403.783 198.709C404.943 198.012 405.834 197.16 406.453 196.154L406.686 195.689L406.918 195.225C407.073 194.683 407.189 194.18 407.267 193.715C407.344 193.251 407.383 192.825 407.383 192.438C407.383 190.348 406.453 188.606 404.596 187.212C402.865 185.769 400.901 184.631 398.789 183.844C397.995 183.551 397.179 183.318 396.35 183.148C395.622 182.928 394.886 182.734 394.144 182.567H393.912C393.834 182.49 393.757 182.451 393.68 182.451C389.914 181.533 386.311 180.045 382.996 178.038C379.666 175.948 377.383 172.967 376.144 169.096C375.901 168.286 375.669 167.473 375.447 166.657C375.288 165.773 375.172 164.882 375.099 163.987C375.028 163.721 374.989 163.448 374.983 163.173V160.386C375.06 159.767 375.176 159.148 375.331 158.528C375.571 156.947 375.96 155.391 376.492 153.883C377.034 152.335 377.731 150.941 378.582 149.703C381.06 145.599 384.234 142.657 388.105 140.877C392.054 139.096 396.157 138.206 400.415 138.206C401.422 138.206 402.428 138.283 403.435 138.438C404.522 138.516 405.607 138.632 406.686 138.786C409.51 139.261 412.274 140.04 414.931 141.109C417.718 142.193 420.273 143.47 422.596 144.941L416.209 159.225C414.125 157.681 411.91 156.321 409.589 155.161C407.267 153.999 404.751 153.419 402.041 153.419H401.111C399.331 153.651 397.667 154.464 396.118 155.857C394.57 157.173 393.796 158.606 393.796 160.154V160.851C393.873 161.083 393.989 161.315 394.144 161.548C394.299 162.09 394.57 162.593 394.957 163.058C395.344 163.522 395.77 163.948 396.234 164.335C397.086 165.032 398.324 165.69 399.951 166.309C401.576 166.851 403.28 167.393 405.061 167.935C406.531 168.322 407.963 168.709 409.357 169.096C410.751 169.406 411.912 169.716 412.841 170.026C417.176 171.574 420.428 174.167 422.596 177.806C424.763 181.367 425.886 185.161 425.963 189.186V189.767C425.963 190.232 425.925 190.697 425.847 191.161V192.438C425.383 196.464 424.067 200.296 421.899 203.935C419.809 207.574 416.983 210.361 413.422 212.297C412.1 212.918 410.743 213.461 409.357 213.922C407.973 214.307 406.579 214.656 405.177 214.968C404.027 215.199 402.863 215.354 401.693 215.432C400.577 215.584 399.452 215.661 398.325 215.664H397.047C392.402 215.51 387.835 214.503 383.344 212.644C378.854 210.709 374.867 208.154 371.384 204.98L380.673 190.115ZM596.567 143.869C590.219 147.353 585.264 152.386 581.703 158.966L581.702 158.965C580.679 160.861 579.824 162.842 579.147 164.887C578.462 166.859 577.919 168.877 577.522 170.926C577.289 172.011 577.134 173.055 577.057 174.061C576.98 175.068 576.941 176.075 576.941 177.081C576.941 183.894 578.799 190.475 582.515 196.823C586.231 203.094 591.341 207.933 597.844 211.339C600.212 212.565 602.704 213.538 605.276 214.242C607.864 214.931 610.506 215.397 613.173 215.636H614.683C615.222 215.713 615.765 215.752 616.309 215.752C623.895 215.752 631.135 213.7 638.025 209.597C644.915 205.417 649.986 199.572 653.237 192.062C653.845 190.55 654.349 188.998 654.747 187.417C655.205 185.823 655.516 184.191 655.676 182.54C655.831 181.765 655.909 180.991 655.909 180.217C655.986 179.365 656.025 178.552 656.025 177.778C656.025 171.354 654.515 165.198 651.496 159.314C648.477 153.353 644.219 148.592 638.722 145.03C636.173 143.407 633.445 142.082 630.593 141.082C627.849 140.086 625.007 139.386 622.115 138.992C621.186 138.914 620.219 138.837 619.212 138.759C618.283 138.682 617.354 138.643 616.425 138.643C609.535 138.643 602.915 140.385 596.567 143.869ZM669.712 213.95V139.976H689.222L717.093 177.95C717.813 179.075 718.472 180.238 719.067 181.434C719.771 182.608 720.429 183.809 721.041 185.034L722.435 188.054C722.899 189.06 723.364 190.027 723.828 190.956C723.755 190.138 723.639 189.324 723.48 188.518C723.403 187.744 723.325 186.931 723.248 186.079C723.09 184.495 722.974 182.908 722.899 181.318C722.819 179.655 722.78 177.989 722.783 176.324V139.976H742.176V213.95H722.783L694.68 175.744C693.906 174.815 693.17 173.731 692.474 172.493C691.77 171.161 691.111 169.805 690.5 168.428C690.05 167.453 689.586 166.485 689.106 165.525C688.747 164.585 688.359 163.655 687.945 162.738C688.332 165.138 688.642 167.577 688.874 170.054C689.106 172.531 689.216 175.009 689.222 177.486V213.95H669.712ZM777.172 139.976L751.74 213.95H771.714L775.546 200.595H804.114L807.83 213.95H828.036L802.372 139.976H777.172ZM779.844 186.311L787.392 161.808C787.699 160.733 787.971 159.649 788.205 158.556C788.521 157.445 788.792 156.322 789.017 155.189C789.094 155.034 789.134 154.918 789.134 154.84C789.134 154.686 789.172 154.531 789.25 154.376C789.327 153.911 789.405 153.485 789.482 153.098C789.637 152.634 789.753 152.208 789.83 151.821C789.908 152.208 789.985 152.634 790.063 153.098C790.14 153.486 790.256 153.911 790.411 154.376C790.653 155.659 790.924 156.937 791.224 158.208C791.6 159.412 791.987 160.612 792.385 161.808L799.934 186.311H779.844ZM634.542 185.559C634.774 184.785 634.968 183.972 635.122 183.12C635.355 182.269 635.51 181.417 635.587 180.565C635.665 180.024 635.703 179.482 635.703 178.94C635.781 178.398 635.819 177.894 635.819 177.43C635.819 176.963 635.78 176.497 635.703 176.036V174.643C635.316 171.313 634.31 168.101 632.683 165.004C631.058 161.907 628.813 159.507 625.948 157.804C625.174 157.417 624.4 157.069 623.626 156.759C622.852 156.449 622.077 156.179 621.303 155.946C620.535 155.792 619.76 155.676 618.981 155.598C618.216 155.444 617.438 155.366 616.658 155.365C612.71 155.365 609.071 156.605 605.742 159.082C602.413 161.559 600.09 164.849 598.774 168.952L598.542 169.417V169.881C598.303 170.604 598.109 171.341 597.962 172.088C597.807 172.785 597.652 173.52 597.497 174.294L597.265 175.92V178.359C597.265 178.591 597.303 178.862 597.381 179.172C597.613 183.275 598.851 187.185 601.097 190.901C603.419 194.539 606.594 196.939 610.619 198.101L612.013 198.565C612.477 198.643 612.981 198.72 613.523 198.797L614.916 199.03H616.31C620.413 199.03 624.09 197.83 627.342 195.43C630.671 192.952 633.071 189.662 634.542 185.559ZM540.541 212.092C544.799 211.162 548.747 209.459 552.386 206.982H552.387C556.877 203.73 560.322 199.55 562.722 194.44C565.122 189.33 566.438 184.027 566.671 178.53V175.627C566.671 175.162 566.632 174.698 566.554 174.234C566.245 168.968 564.89 163.859 562.49 158.904C560.09 153.95 556.722 149.963 552.387 146.944C549.023 144.485 545.189 142.746 541.123 141.834C537.097 140.905 532.993 140.324 528.813 140.092C527.652 140.014 526.452 139.976 525.213 139.976H500.129V213.95H523.935C525.175 213.95 526.414 213.911 527.651 213.834C531.986 213.602 536.283 213.022 540.541 212.092ZM519.986 197.343C520.218 197.343 520.451 197.382 520.683 197.459H521.496C521.806 197.459 522.076 197.499 522.309 197.576H525.444C526.296 197.498 527.109 197.421 527.883 197.343C529.887 197.19 531.87 196.84 533.805 196.298C535.741 195.756 537.483 194.943 539.031 193.859C541.509 192.079 543.328 189.679 544.489 186.659C545.721 183.595 546.352 180.323 546.347 177.021V176.091C546.347 175.782 546.309 175.472 546.231 175.163C546.079 172.23 545.369 169.353 544.141 166.685C542.902 163.898 541.199 161.692 539.031 160.065C537.441 158.767 535.574 157.853 533.573 157.395C531.592 156.924 529.569 156.652 527.534 156.582H519.986V197.343ZM440.076 139.975V213.949H485.482V197.343H459.934V184.801H483.973V169.007H459.934V156.117H485.482V139.975H440.076ZM722.423 336.358C722.31 336.649 722.253 336.941 722.253 337.235C722.253 337.953 722.5 338.504 722.993 338.884C723.488 339.268 724.063 339.458 724.713 339.458C724.689 339.839 724.589 340.176 724.409 340.468C724.23 340.759 724.001 341.016 723.733 341.228C723.466 341.441 723.179 341.621 722.876 341.767C722.572 341.912 722.298 342.029 722.048 342.119L723.398 344.109C723.431 344.093 723.464 344.077 723.496 344.062L723.526 344.048L723.582 344.022C723.644 343.993 723.706 343.966 723.768 343.939C723.974 343.851 724.214 343.731 724.494 343.587C724.802 343.424 725.1 343.244 725.387 343.047C725.689 342.844 725.972 342.613 726.23 342.356C726.783 341.807 727.223 341.154 727.526 340.436C727.83 339.717 727.981 338.928 727.981 338.078C727.981 337.627 727.915 337.201 727.779 336.797C727.644 336.393 727.454 336.045 727.207 335.753C726.916 335.436 726.56 335.196 726.146 335.026C725.73 334.858 725.298 334.774 724.848 334.774C724.443 334.774 724.078 334.848 723.753 334.994C723.443 335.129 723.162 335.323 722.926 335.566C722.703 335.802 722.535 336.065 722.423 336.358ZM730.09 337.235C730.09 336.942 730.147 336.649 730.257 336.358C730.37 336.065 730.539 335.802 730.763 335.566C730.99 335.331 731.263 335.138 731.588 334.994C731.915 334.849 732.278 334.774 732.684 334.774C733.134 334.774 733.567 334.858 733.981 335.026C734.398 335.196 734.751 335.436 735.042 335.753C735.292 336.045 735.482 336.393 735.616 336.797C735.75 337.202 735.818 337.628 735.818 338.078C735.827 338.887 735.672 339.689 735.363 340.436C735.059 341.154 734.618 341.806 734.065 342.356C733.806 342.613 733.523 342.844 733.22 343.047C732.934 343.246 732.636 343.426 732.327 343.587C732.047 343.732 731.807 343.851 731.602 343.939C731.478 343.993 731.354 344.05 731.232 344.109L729.884 342.119C730.131 342.03 730.404 341.912 730.709 341.767C731.013 341.621 731.299 341.441 731.569 341.228C731.837 341.014 732.063 340.761 732.242 340.468C732.423 340.176 732.524 339.84 732.546 339.458C731.924 339.469 731.318 339.266 730.827 338.884C730.337 338.504 730.09 337.953 730.09 337.236V337.235ZM465.36 279.394C465.473 279.103 465.53 278.81 465.53 278.519H465.531C465.531 277.8 465.283 277.251 464.791 276.87C464.297 276.488 463.723 276.298 463.073 276.298C463.096 275.915 463.196 275.577 463.376 275.285C463.556 274.993 463.779 274.74 464.049 274.527C464.319 274.313 464.606 274.134 464.909 273.988C465.178 273.858 465.454 273.74 465.734 273.636L464.386 271.648C464.342 271.67 464.219 271.728 464.016 271.815C463.813 271.904 463.571 272.023 463.291 272.167C462.983 272.329 462.685 272.509 462.398 272.707C462.095 272.909 461.812 273.14 461.554 273.397C461.001 273.947 460.56 274.599 460.257 275.317C459.954 276.037 459.802 276.825 459.802 277.677C459.8 278.112 459.868 278.544 460.004 278.957C460.126 279.339 460.321 279.694 460.577 280.002C460.872 280.319 461.234 280.567 461.637 280.727C462.049 280.895 462.489 280.98 462.934 280.979C463.656 280.989 464.351 280.703 464.857 280.187C465.076 279.959 465.247 279.689 465.36 279.394ZM457.694 278.519C457.689 279.141 457.449 279.738 457.021 280.189C456.785 280.431 456.505 280.625 456.195 280.76C455.869 280.906 455.503 280.98 455.099 280.98C454.654 280.981 454.213 280.896 453.801 280.728C453.398 280.567 453.036 280.319 452.741 280.002C452.484 279.694 452.289 279.339 452.168 278.957C452.032 278.544 451.963 278.112 451.966 277.677C451.966 276.825 452.116 276.037 452.421 275.317C452.724 274.599 453.165 273.946 453.718 273.397C453.965 273.149 454.245 272.92 454.561 272.706C454.875 272.494 455.173 272.313 455.454 272.166C455.734 272.022 455.974 271.904 456.178 271.816L456.235 271.79C456.404 271.714 456.509 271.667 456.55 271.646L457.897 273.634C457.649 273.724 457.375 273.842 457.071 273.987C456.768 274.134 456.481 274.313 456.214 274.525C455.946 274.737 455.718 274.994 455.538 275.284C455.359 275.576 455.258 275.914 455.236 276.296C455.886 276.296 456.46 276.486 456.954 276.869C457.447 277.251 457.694 277.799 457.694 278.519ZM706.859 335.393H703.044L714.925 314.757H718.701L706.859 335.393ZM702.863 336.881C701.627 336.881 700.682 337.861 700.682 339.099C700.682 340.337 701.628 341.279 702.863 341.279C704.095 341.279 705.08 340.335 705.08 339.099C705.08 337.863 704.095 336.881 702.863 336.881ZM677.601 329.466L676.511 331.354C677.346 333.825 680.65 332.445 681.78 330.483L683.595 327.359C684.94 325.069 681.961 323.398 677.601 329.466ZM701.603 334.334C701.385 333.754 700.731 333.171 700.186 333.027L699.931 333.319C698.602 334.879 697.075 336.258 695.389 337.423C695.859 336.012 696.106 334.304 696.372 332.458C696.784 329.599 697.244 326.409 698.657 323.473L695.822 321.946C695.544 322.328 695.207 322.799 694.821 323.338L694.82 323.339L694.82 323.339C693.043 325.822 690.236 329.743 687.43 333.027C687.436 333.037 687.446 333.045 687.451 333.052C687.445 333.049 687.438 333.045 687.431 333.041C687.423 333.035 687.414 333.03 687.406 333.027L687.153 333.319C684.426 336.479 681.776 338.985 680.103 338.985C679.269 338.985 678.469 338.149 678.469 336.442V334.88C681.121 335.207 683.919 333.462 685.699 330.376L686.715 328.633C690.237 322.603 684.498 320.603 680.647 324.129L686.022 314.792H682.243L671.468 333.487C671.261 333.303 671.029 333.15 670.779 333.03L670.523 333.322C667.8 336.482 664.312 338.988 661.66 338.988C659.335 338.988 657.955 337.535 659.699 334.484L663.583 327.727C665.763 323.985 669.615 324.603 667.361 328.527L666.817 329.471H669.907L670.452 328.527C672.486 325.039 670.523 322.423 667.437 322.423C664.386 322.423 661.95 324.023 660.352 326.783L656.634 333.163C656.614 333.151 656.594 333.139 656.575 333.127C656.515 333.091 656.456 333.055 656.401 333.031L656.146 333.323C653.422 336.483 650.771 338.989 649.099 338.989C648.263 338.989 647.793 338.409 648.663 336.919L656.729 322.786H652.949L646.23 334.52C643.357 337.135 641.145 338.588 640.416 338.262C639.54 337.892 640.289 336.646 640.78 335.83C640.818 335.766 640.855 335.705 640.889 335.647L648.263 322.786H644.485L637.147 335.481C636.641 335.942 635.838 336.372 635.114 336.761C634.67 336.999 634.256 337.221 633.957 337.425C634.428 336.013 634.674 334.305 634.941 332.458V332.458L634.941 332.457C635.353 329.599 635.814 326.41 637.226 323.475L634.394 321.948C632.831 324.091 624.111 335.646 620.696 339.641C621.021 340.113 621.568 340.586 622.112 340.949C624.255 338.479 631.45 329.215 632.794 327.435C632.293 328.753 632.051 330.425 631.814 332.063C631.345 335.3 630.895 338.407 628.506 338.407C627.236 338.407 626.726 337.025 626.726 337.025L624.365 338.261C624.365 338.261 625.055 341.311 628.505 341.311C628.839 341.311 629.141 341.281 629.469 341.248L629.469 341.248L629.561 341.239C629.568 341.239 629.574 341.238 629.581 341.236C629.587 341.234 629.593 341.231 629.599 341.228C629.604 341.226 629.609 341.224 629.614 341.221L629.614 341.221C629.625 341.215 629.635 341.21 629.646 341.207L629.651 341.205L629.654 341.204C629.659 341.204 629.663 341.203 629.667 341.203C631.587 340.949 634.245 340.065 636.027 338.833C636.015 340.37 636.943 341.311 638.527 341.311C640.595 341.311 642.922 339.422 644.737 337.679C644.376 339.714 645.572 341.311 647.972 341.311C650.318 341.311 652.931 339.425 655.409 336.948C655.443 339.458 657.377 341.311 660.535 341.311C663.601 341.311 666.649 339.598 669.276 337.295L667.171 340.949H670.987L675.31 333.429V336.443C675.31 339.675 675.927 341.311 678.98 341.311C682.103 341.311 685.701 337.97 688.825 334.336C688.823 334.333 688.821 334.33 688.818 334.326C688.812 334.319 688.806 334.311 688.805 334.302C688.819 334.314 688.836 334.325 688.852 334.336C690.565 332.362 692.117 330.271 693.355 328.602C693.666 328.183 693.958 327.79 694.227 327.432C693.727 328.75 693.486 330.42 693.249 332.058C692.78 335.296 692.33 338.405 689.94 338.405C688.67 338.405 688.16 337.023 688.16 337.023L685.798 338.259C685.798 338.259 686.489 341.309 689.94 341.309C690.268 341.309 690.566 341.28 690.892 341.247L690.996 341.237C691.012 341.237 691.027 341.23 691.043 341.222C691.062 341.212 691.081 341.202 691.101 341.202C694.954 340.69 698.769 337.64 701.602 334.332L701.603 334.334ZM586.829 333.248H587.012L589.772 328.526C592.06 324.601 588.428 322.821 585.775 327.326L583.959 330.414L581.089 335.391C578.836 339.315 583.16 339.895 584.939 336.845L584.976 336.772C584.758 336.41 584.613 335.975 584.613 335.503C584.613 334.265 585.594 333.248 586.829 333.248ZM561.582 347.379C560.782 348.796 559.51 348.579 559.51 347.563C559.51 346.583 560.419 345.457 563.325 344.329L561.582 347.379ZM526.737 338.952C528.299 338.952 530.552 337.244 532.84 333.649L535.781 328.489C537.635 325.073 533.603 324.166 531.568 327.688L526.301 336.881C525.43 338.372 525.902 338.952 526.737 338.952ZM520.786 318.899C521.912 316.972 523.148 316.137 524.201 316.137C525.619 316.137 526.272 317.081 526.272 318.462C526.272 321.986 521.908 329.295 516.1 328.343H515.337L520.786 318.899ZM613.309 333.285L613.563 332.993L613.564 332.994C614.074 333.212 614.727 333.794 614.982 334.305C611.856 337.938 608.262 341.28 605.136 341.28C602.083 341.28 600.958 338.703 602.556 335.904L607.46 327.366C609.096 324.568 606.516 323.625 600.739 330.855L594.963 340.918H591.148L593.688 336.524C592.002 337.454 590.134 337.974 588.754 337.974H587.919C583.681 343.332 576.653 342.129 577.173 336.852C573.921 340.071 570.807 342.03 567.648 343.024L564.742 348.002C562.02 352.652 556.46 351.888 556.46 348.255C556.46 345.423 559.657 343.314 564.78 341.79L566.851 338.23C565.142 339.754 563.073 341.28 561.256 341.28C559.374 341.28 558.415 339.948 558.868 337.87C556.694 339.86 554.461 341.28 552.428 341.28C549.377 341.28 548.251 338.704 549.849 335.904L554.753 327.37C556.388 324.571 553.808 323.628 548.031 330.858L542.255 340.921H538.441L539.833 338.51C537.891 340.159 535.923 341.283 534.113 341.283C532.189 341.283 531.025 340.268 530.845 338.814C529.028 340.303 527.139 341.283 525.613 341.283C522.938 341.283 521.742 339.302 522.565 336.928L522.341 337.141L522.341 337.141C519.851 339.51 517.988 341.283 513.884 341.283C508.544 341.283 506.983 336.199 509.634 331.621L510.759 329.657C507.709 328.059 506.001 325.152 506.001 322.139C506.001 319.593 507.198 317.017 509.888 315.089L511.123 317.307C509.489 318.577 508.689 320.321 508.689 322.064C508.689 324.172 509.853 326.279 512.069 327.442L517.955 317.305C519.661 314.327 522.132 312.873 524.203 312.873C526.999 312.873 529.216 315.088 529.216 318.503C529.216 319.993 528.743 321.736 527.69 323.589C524.711 328.784 520.133 330.856 516.1 330.856C515.339 330.856 514.648 330.779 513.958 330.672L512.903 332.524C510.653 336.376 512.214 338.955 514.793 338.955C518.468 338.955 520.552 336.538 523.206 333.459L523.353 333.288L523.607 332.996C523.878 333.069 524.175 333.251 524.435 333.484L528.338 326.748C529.934 323.985 532.77 322.388 534.803 322.388C537.274 322.388 538.909 324.604 538.764 326.202H540.907L534.803 336.882C533.932 338.374 534.404 338.954 535.239 338.954C536.912 338.954 539.564 336.447 542.287 333.287L542.541 332.995C542.666 333.053 542.786 333.12 542.9 333.197L548.938 322.752H552.718L551.301 325.221C553.189 323.259 554.897 322.387 556.532 322.387C558.639 322.387 560.201 324.459 558.566 327.329L553.117 336.882C552.246 338.374 552.718 338.954 553.553 338.954C555.225 338.954 557.876 336.447 560.601 333.287L560.855 332.995C560.97 333.049 561.081 333.111 561.186 333.182L567.214 322.752H570.992L563.617 335.612L563.57 335.692L563.506 335.798C563.016 336.616 562.271 337.859 563.145 338.228C563.871 338.554 566.124 337.065 569.031 334.378L575.714 322.752H579.493L569.138 340.482C572.116 339.207 574.768 336.882 577.893 333.287L578.147 332.996C578.266 333.05 578.38 333.114 578.489 333.186L580.109 330.416L581.961 327.183C584.142 323.405 586.393 322.243 589.3 322.243C592.862 322.243 594.968 325.982 592.68 329.944L589.12 336.084C591.009 336.047 593.117 335.137 594.823 333.285L595.078 332.993C595.248 333.073 595.41 333.17 595.56 333.283L601.648 322.75H605.427L604.01 325.219C605.9 323.257 607.605 322.386 609.241 322.386C611.346 322.386 612.912 324.457 611.276 327.327L605.826 336.88C604.955 338.372 605.426 338.952 606.262 338.952C607.934 338.952 610.587 336.445 613.309 333.285ZM732.194 297.421C729.904 301.162 727.579 302.942 725.982 302.942C725.147 302.942 724.675 302.362 725.545 300.872L730.812 291.679C732.847 288.155 736.879 289.064 735.026 292.479H735.061L732.194 297.421ZM689.903 302.942C691.464 302.942 693.717 301.234 696.007 297.64L698.948 292.479C700.8 289.064 696.768 288.155 694.734 291.679L689.466 300.872C688.596 302.362 689.067 302.942 689.903 302.942ZM656.09 311.37C655.293 312.787 654.02 312.57 654.02 311.554C654.02 310.573 654.892 309.447 657.799 308.32L656.09 311.37ZM667.535 280.129C666.48 280.129 665.245 280.963 664.118 282.889L658.67 292.334H659.433C669.06 294.564 673.529 280.129 667.535 280.129ZM741.782 296.986L741.527 297.276C738.807 300.436 736.153 302.943 734.48 302.943C733.645 302.943 733.173 302.363 734.043 300.872L746.832 278.748H743.053L737.496 288.339C736.842 287.285 735.606 286.377 734.043 286.377C732.008 286.377 729.176 287.976 727.577 290.736L723.879 297.116C723.866 297.109 723.853 297.101 723.84 297.093L723.815 297.078C723.757 297.043 723.699 297.008 723.645 296.984L723.39 297.276C720.667 300.436 718.39 302.942 716.718 302.942C715.881 302.942 715.411 302.362 716.28 300.872L721.73 291.317C723.367 288.447 721.802 286.375 719.696 286.375C718.06 286.375 716.356 287.246 714.464 289.21L715.881 286.74H712.102L706.065 297.187C705.95 297.11 705.83 297.042 705.705 296.984L705.449 297.276C702.726 300.436 700.075 302.942 698.403 302.942C697.568 302.942 697.097 302.362 697.967 300.872L704.07 290.19H701.926C702.072 288.592 700.438 286.375 697.966 286.375C695.931 286.375 693.096 287.974 691.498 290.733L687.846 297.039L687.64 297.273C684.918 300.432 681.89 302.938 680.22 302.938C679.383 302.938 678.913 302.358 679.783 300.868L683.561 294.257C684.868 291.967 684.25 290.624 683.016 289.134L680.91 286.59C680.365 285.9 680.365 285.137 681.128 284.41L679.166 282.267C677.022 284.194 676.841 286.336 678.184 288.08L678.513 288.516L678.379 288.705L678.379 288.706C676.721 291.048 674.523 294.153 672.116 296.981C672.157 297.04 672.202 297.098 672.25 297.156C672.29 297.204 672.331 297.253 672.374 297.301C669.261 300.881 666.615 303.196 663.644 304.463L668.439 296.253H664.661L664.262 296.908C662.264 300.432 659.974 302.939 657.032 302.939C654.452 302.939 653.982 300.36 656.232 296.509L657.287 294.657C657.995 294.774 658.711 294.834 659.429 294.838C672.872 294.838 679.375 276.856 667.533 276.856C665.461 276.856 662.989 278.31 661.283 281.288L655.398 291.423C653.182 290.262 652.02 288.155 652.02 286.048C652.02 284.305 652.82 282.56 654.452 281.29L653.219 279.073C650.529 280.999 649.331 283.577 649.331 286.12C649.331 289.136 651.04 292.042 654.091 293.64L652.964 295.603C650.312 300.181 650.784 305.266 656.126 305.266C657.724 305.266 659.067 304.794 660.231 304.066L659.248 305.776C654.128 307.336 650.966 309.407 650.966 312.241C650.966 315.873 656.526 316.637 659.248 311.987L662.155 307.01C666.08 305.775 669.931 303.087 674.073 298.291C674.006 298.165 673.927 298.046 673.837 297.936C675.515 295.965 676.939 294.062 679.787 290.19L680.294 290.809C680.767 291.425 680.948 292.189 680.512 292.953L676.515 299.89C674.916 302.685 676.043 305.264 679.095 305.264C680.994 305.264 683.443 304.025 685.48 302.24C685.436 303.978 686.624 305.264 688.779 305.264C690.304 305.264 692.194 304.284 694.009 302.794C694.192 304.248 695.356 305.264 697.279 305.264C699.089 305.264 701.056 304.139 702.999 302.49L701.607 304.902H705.42L711.197 294.837C716.974 287.608 719.554 288.553 717.917 291.35L713.014 299.888C711.417 302.686 712.541 305.264 715.592 305.264C717.602 305.264 719.428 303.88 721.574 301.931C721.374 303.824 722.578 305.264 724.856 305.264C726.381 305.264 728.27 304.284 730.088 302.794C730.27 304.249 731.433 305.264 733.357 305.264C736.482 305.264 740.077 301.923 743.202 298.288C742.946 297.784 742.293 297.203 741.782 296.986ZM633.281 292.48C635.535 288.556 631.682 287.939 629.502 291.681L627.068 295.931C628.484 296.439 630.919 296.513 632.736 293.424L633.281 292.48ZM626.451 305.268C630.738 305.268 634.991 301.927 638.113 298.293C637.86 297.783 637.205 297.203 636.696 296.985L636.443 297.277C633.717 300.437 630.23 302.943 627.576 302.943C625.251 302.943 623.871 301.49 625.614 298.438L625.977 297.785C628.412 298.801 632.989 298.33 635.823 293.425L636.368 292.481C638.403 288.992 636.441 286.377 633.352 286.377C630.302 286.377 627.868 287.975 626.269 290.736L622.59 297.049C622.552 297.029 622.514 297.001 622.478 296.985L622.223 297.277C619.499 300.437 616.848 302.943 615.176 302.943C614.34 302.943 613.87 302.363 614.739 300.872L620.189 291.317C621.824 288.447 620.261 286.375 618.153 286.375C616.518 286.375 614.774 287.284 612.887 289.246L618.917 278.746H615.139L604.483 297.236C604.348 297.138 604.203 297.053 604.051 296.984L603.796 297.275C601.071 300.436 598.42 302.942 596.748 302.942C595.913 302.942 595.441 302.362 596.311 300.872L604.413 286.738H607.503L608.593 284.921H605.468L609.028 278.746H605.25L601.69 284.921H598.275L597.185 286.738H600.635L593.042 299.891C591.444 302.69 592.57 305.268 595.621 305.268C597.499 305.268 599.547 304.055 601.561 302.304L600.062 304.904H603.877L609.617 294.912C615.43 287.61 618.01 288.555 616.375 291.352L611.47 299.89C609.872 302.688 610.998 305.266 614.05 305.266C616.346 305.266 618.896 303.461 621.326 301.061C621.436 303.492 623.359 305.268 626.451 305.268ZM502.756 292.479C505.01 288.555 501.16 287.938 498.98 291.68L496.545 295.929C497.961 296.438 500.397 296.511 502.212 293.423L502.756 292.479ZM522.099 300.871L527.367 291.68C529.401 288.154 533.434 289.063 531.58 292.479L528.638 297.638C526.35 301.233 524.095 302.942 522.534 302.942C521.7 302.942 521.227 302.361 522.099 300.872V300.871ZM579.859 292.479C582.113 288.555 578.263 287.938 576.083 291.68L573.648 295.929C575.064 296.437 577.499 296.511 579.314 293.423L579.859 292.479ZM518.275 301.206C517.648 303.446 518.845 305.266 521.409 305.266C522.934 305.266 524.824 304.286 526.639 302.797C526.822 304.25 527.985 305.267 529.909 305.267C531.922 305.267 534.127 303.877 536.278 301.921C535.86 303.963 536.817 305.267 538.678 305.267C540.751 305.267 543.076 303.377 544.891 301.633C544.527 303.669 545.728 305.267 548.125 305.267C551.25 305.267 554.845 301.925 557.97 298.291C557.955 298.262 557.935 298.232 557.914 298.203C557.899 298.182 557.883 298.161 557.87 298.14C559.51 296.232 560.998 294.233 562.2 292.618L562.2 292.618L562.2 292.617L562.201 292.617L562.201 292.616C562.529 292.175 562.836 291.764 563.118 291.39C562.617 292.708 562.375 294.379 562.138 296.018V296.018C561.669 299.254 561.219 302.362 558.83 302.362C557.56 302.362 557.05 300.98 557.05 300.98L554.687 302.215C554.687 302.215 555.377 305.267 558.829 305.267C559.153 305.267 559.447 305.238 559.766 305.206L559.883 305.194C559.902 305.194 559.92 305.185 559.938 305.176C559.956 305.168 559.973 305.159 559.991 305.159C562.767 304.792 565.52 303.103 567.904 300.95C567.962 303.436 569.89 305.267 573.029 305.267C577.316 305.267 581.567 301.926 584.691 298.291C584.437 297.781 583.783 297.201 583.275 296.983L583.021 297.275C580.296 300.435 576.808 302.942 574.158 302.942C571.832 302.942 570.451 301.488 572.195 298.437L572.559 297.783C574.991 298.799 579.569 298.328 582.404 293.423L582.949 292.48C584.983 288.991 583.021 286.376 579.934 286.376C576.884 286.376 574.447 287.974 572.851 290.734L569.181 297.028C569.165 297.023 569.149 297.014 569.133 297.006C569.114 296.997 569.096 296.987 569.077 296.982L568.823 297.273C567.494 298.833 565.967 300.213 564.281 301.379C564.752 299.967 564.998 298.259 565.265 296.412V296.412L565.265 296.412C565.678 293.554 566.139 290.364 567.551 287.428L564.718 285.902C564.434 286.292 564.089 286.774 563.693 287.326L563.693 287.326C561.914 289.811 559.12 293.713 556.325 296.982C556.336 296.997 556.348 297.012 556.36 297.028C556.368 297.037 556.376 297.047 556.384 297.056L556.386 297.059L556.387 297.06C556.403 297.08 556.42 297.1 556.435 297.12L556.3 297.273C553.576 300.433 550.924 302.94 549.252 302.94C548.417 302.94 547.945 302.36 548.816 300.87L556.881 286.735H553.102L546.382 298.469C543.512 301.085 541.297 302.538 540.568 302.211C539.692 301.841 540.443 300.593 540.934 299.776L540.935 299.774L540.944 299.759C540.965 299.726 540.984 299.693 541.003 299.661C541.016 299.639 541.029 299.617 541.042 299.596L548.415 286.736H544.637L538.624 297.141L538.59 297.12C538.504 297.067 538.418 297.014 538.337 296.98L538.083 297.27C535.358 300.43 532.707 302.937 531.035 302.937C530.2 302.937 529.728 302.357 530.599 300.867L536.702 290.185H534.558C534.704 288.587 533.07 286.369 530.598 286.369C528.564 286.369 525.73 287.969 524.132 290.729L520.302 297.341C520.126 297.197 519.932 297.075 519.726 296.978L519.472 297.268C516.748 300.428 513.614 302.935 510.962 302.935C508.638 302.935 507.256 301.482 508.999 298.431L512.886 291.675C515.066 287.933 518.917 288.55 516.663 292.473L516.118 293.418H519.208L519.752 292.473C521.786 288.986 519.825 286.369 516.738 286.369C513.686 286.369 511.604 287.969 510.008 290.729L506.252 297.172C506.142 297.098 506.026 297.033 505.905 296.978L505.651 297.268C502.927 300.428 499.704 302.935 497.053 302.935C494.727 302.935 493.346 301.482 495.09 298.431L495.453 297.777C497.887 298.795 502.465 298.322 505.299 293.419L505.844 292.473C507.878 288.987 505.916 286.37 502.828 286.37C499.778 286.37 497.342 287.968 495.745 290.73L491.785 297.522C489.422 301.555 491.458 305.26 495.925 305.26C499.254 305.26 501.938 303.245 504.713 300.643C504.615 303.28 506.571 305.26 509.834 305.26C512.922 305.266 515.634 303.532 518.275 301.206ZM484.454 282.015L481.403 287.246V287.247C485.254 287.174 487.399 286.338 488.849 283.614C490.739 280.053 487.214 277.258 484.454 282.015ZM477.335 304.466C475.082 304.466 473.302 303.958 471.885 303.16C472.539 302.396 473.192 301.451 473.775 300.471L480.131 289.463L481.148 289.571C490.014 291.426 486.489 304.466 477.335 304.466ZM486.672 288.991C494.3 286.41 494.881 276.856 487.361 276.856C485.29 276.856 482.82 278.309 481.113 281.288L470.94 298.872C470.52 299.627 470.034 300.344 469.488 301.013C466.872 297.418 467.635 292.042 471.304 289.679L469.777 287.753C461.857 292.803 464.183 307.37 477.407 307.37C488.707 307.372 493.937 293.824 486.672 288.991Z" fill="white"/>
<path d="M0 433V376L250 400V376L600 433L950 376V400L1200 376V433H0Z" fill="white"/>
</svg>
